<svg width="96" height="96" viewBox="0 0 96 96" fill="none" xmlns="http://www.w3.org/2000/svg">
  <defs>
    <linearGradient id="adpr-bg" x1="12" y1="8" x2="84" y2="88" gradientUnits="userSpaceOnUse">
      <stop offset="0" stop-color="#123E5A"/>
      <stop offset="0.55" stop-color="#0F766E"/>
      <stop offset="1" stop-color="#F59E0B"/>
    </linearGradient>
    <linearGradient id="adpr-paper" x1="31" y1="18" x2="67" y2="78" gradientUnits="userSpaceOnUse">
      <stop offset="0" stop-color="#FFFFFF"/>
      <stop offset="1" stop-color="#E7F3F1"/>
    </linearGradient>
    <filter id="adpr-shadow" x="12" y="11" width="74" height="78" filterUnits="userSpaceOnUse" color-interpolation-filters="sRGB">
      <feDropShadow dx="0" dy="5" stdDeviation="5" flood-color="#0B2535" flood-opacity="0.22"/>
    </filter>
  </defs>
  <rect x="8" y="8" width="80" height="80" rx="24" fill="url(#adpr-bg)"/>
  <path d="M21 31C28.4 21.9 38 17.3 49.8 17.3C61.3 17.3 70.3 21.1 76.8 28.8" stroke="#D9FBF4" stroke-width="4" stroke-linecap="round" opacity="0.75"/>
  <g filter="url(#adpr-shadow)">
    <path d="M31 20H57L70 33V75C70 78.3 67.3 81 64 81H31C27.7 81 25 78.3 25 75V26C25 22.7 27.7 20 31 20Z" fill="url(#adpr-paper)"/>
    <path d="M57 20V31C57 32.7 58.3 34 60 34H70" fill="#C7E9E3"/>
    <path d="M36 43H59" stroke="#123E5A" stroke-width="4" stroke-linecap="round"/>
    <path d="M36 55H57" stroke="#0F766E" stroke-width="4" stroke-linecap="round"/>
    <path d="M36 67H49" stroke="#F59E0B" stroke-width="4" stroke-linecap="round"/>
  </g>
  <circle cx="68" cy="68" r="11" fill="#123E5A"/>
  <path d="M63.5 68.5L67 72L73 64.5" stroke="#FFFFFF" stroke-width="3" stroke-linecap="round" stroke-linejoin="round"/>
</svg>
